<?xml version="1.0" standalone="no"?>
<!DOCTYPE svg PUBLIC "-//W3C//DTD SVG 1.1//EN" "http://www.w3.org/Graphics/SVG/1.1/DTD/svg11.dtd">
<svg version="1.1" xmlns="http://www.w3.org/2000/svg" viewBox="0 0 179.2210958238412 122.79709262847899" width="358.4421916476824" height="245.59418525695799"><!-- svg-source:excalidraw --><metadata></metadata><defs><style class="style-fonts">
      </style></defs><g stroke-linecap="round"><g transform="translate(11.774791916357344 101.9369389332831) rotate(0 40.25 -45.5)"><path d="M-0.21 -0.21 C13.02 -15.39, 66.05 -76.92, 79.67 -91.94 M-1.77 -1.36 C11.81 -16.34, 68.1 -75.74, 81.94 -90.89" stroke="#f08c00" stroke-width="2" fill="none"></path></g></g><mask></mask><g stroke-linecap="round"><g transform="translate(168.5258286747802 104.4369389332831) rotate(0 -38.75 -46.5)"><path d="M0.7 -0.36 C-11.88 -16.08, -63.48 -77.68, -76.4 -93.32 M-0.4 -1.59 C-12.96 -16.62, -63.97 -76.64, -76.77 -91.94" stroke="#f08c00" stroke-width="2" fill="none"></path></g></g><mask></mask><g stroke-linecap="round"><g transform="translate(68.27479191635734 111.9369389332831) rotate(0 9.5 -10.5)"><path d="M-1.06 0.86 C2.34 -2.88, 16.3 -18.74, 19.48 -22.19 M0.58 0.27 C3.95 -3.39, 15.48 -17.64, 18.78 -21.27" stroke="#f08c00" stroke-width="2" fill="none"></path></g></g><mask></mask><g stroke-linecap="round"><g transform="translate(106.27479191635734 109.9369389332831) rotate(0 -15.25 -17.5)"><path d="M0.56 0.19 C-4.46 -5.69, -24.19 -29.91, -29.33 -35.95 M-0.6 -0.75 C-5.74 -6.45, -24.62 -29.15, -29.66 -34.91" stroke="#f08c00" stroke-width="2" fill="none"></path></g></g><mask></mask><g stroke-linecap="round"><g transform="translate(73.27479191635734 70.9369389332831) rotate(0 18.25 -18.25)"><path d="M0.69 -1.15 C6.72 -7.29, 31.22 -31.29, 37.28 -37.15 M-0.41 0.86 C5.43 -5.1, 30.58 -29.99, 36.75 -35.95" stroke="#f08c00" stroke-width="2" fill="none"></path></g></g><mask></mask></svg>